<?xml version="1.0" encoding="UTF-8" standalone="no"?>
<!-- Generator: Adobe Illustrator 18.0.0, SVG Export Plug-In . SVG Version: 6.00 Build 0)  -->

<svg
   xmlns:dc="http://purl.org/dc/elements/1.1/"
   xmlns:cc="http://creativecommons.org/ns#"
   xmlns:rdf="http://www.w3.org/1999/02/22-rdf-syntax-ns#"
   xmlns:svg="http://www.w3.org/2000/svg"
   xmlns="http://www.w3.org/2000/svg"
   xmlns:sodipodi="http://sodipodi.sourceforge.net/DTD/sodipodi-0.dtd"
   xmlns:inkscape="http://www.inkscape.org/namespaces/inkscape"
   version="1.1"
   id="图层_1"
   x="0px"
   y="0px"
   viewBox="0 0 40 40"
   enable-background="new 0 0 40 40"
   xml:space="preserve"
   inkscape:version="0.91 r13725"
   sodipodi:docname="027__download.svg"><metadata
     id="metadata27"><rdf:RDF><cc:Work
         rdf:about=""><dc:format>image/svg+xml</dc:format><dc:type
           rdf:resource="http://purl.org/dc/dcmitype/StillImage" /><dc:title></dc:title></cc:Work></rdf:RDF></metadata><defs
     id="defs25" /><sodipodi:namedview
     pagecolor="#ffffff"
     bordercolor="#666666"
     borderopacity="1"
     objecttolerance="10"
     gridtolerance="10"
     guidetolerance="10"
     inkscape:pageopacity="0"
     inkscape:pageshadow="2"
     inkscape:window-width="1338"
     inkscape:window-height="722"
     id="namedview23"
     showgrid="false"
     inkscape:zoom="8.34386"
     inkscape:cx="20.049643"
     inkscape:cy="20.794287"
     inkscape:window-x="305"
     inkscape:window-y="189"
     inkscape:window-maximized="0"
     inkscape:current-layer="图层_1" /><g
     id="g3"
     style="fill:#b3b3b3;fill-opacity:1"><g
       id="g5"
       style="fill:#b3b3b3;fill-opacity:1"><g
         id="g7"
         style="fill:#b3b3b3;fill-opacity:1"><g
           id="g9"
           style="fill:#b3b3b3;fill-opacity:1"><g
             id="g11"
             style="fill:#b3b3b3;fill-opacity:1"><path
               fill="#231815"
               d="M20,22c-0.1,0-0.3,0-0.4-0.1l-3-3c-0.2-0.2-0.2-0.5,0-0.7s0.5-0.2,0.7,0l2.6,2.6l2.6-2.6       c0.2-0.2,0.5-0.2,0.7,0s0.2,0.5,0,0.7l-3,3C20.3,22,20.1,22,20,22z"
               id="path13"
               style="fill:#b3b3b3;fill-opacity:1" /></g><g
             id="g15"
             style="fill:#b3b3b3;fill-opacity:1"><path
               fill="#231815"
               d="M20,21.5c-0.3,0-0.5-0.2-0.5-0.5v-8c0-0.3,0.2-0.5,0.5-0.5s0.5,0.2,0.5,0.5v8       C20.5,21.3,20.3,21.5,20,21.5z"
               id="path17"
               style="fill:#b3b3b3;fill-opacity:1" /></g></g><g
           id="g19"
           style="fill:#b3b3b3;fill-opacity:1"><path
             fill="#231815"
             d="M25,27.5H15c-1.4,0-2.5-1.1-2.5-2.5v-2c0-0.3,0.2-0.5,0.5-0.5s0.5,0.2,0.5,0.5v2c0,0.8,0.7,1.5,1.5,1.5      h10c0.8,0,1.5-0.7,1.5-1.5v-2c0-0.3,0.2-0.5,0.5-0.5s0.5,0.2,0.5,0.5v2C27.5,26.4,26.4,27.5,25,27.5z"
             id="path21"
             style="fill:#b3b3b3;fill-opacity:1" /></g></g></g></g></svg>